#!OML:ASF H:\LiuWeirdWalks\Patient Classification 1\Patient 1\Session 1\male.ASF
:FULLY-SPECIFIED
:DEGREES
399
root 2.14069 16.8639 9.52157 6.62895 7.48723 -5.39237
lowerback 15.2434 0.479224 -4.62829
upperback -1.74391 0.0244221 2.48213
thorax -10.5178 0.375224 5.34736
lowerneck -26.0741 -0.19638 5.00827
upperneck 23.0351 -1.98456 -1.0543
head 11.8129 -0.572639 -1.56557
rclavicle -2.00773e-014 -2.94201e-014
rhumerus -43.2275 0.584565 -73.7149
rradius 55.305
rwrist -13.7683
rhand -20.6451 6.03429
rfingers 7.12502
rthumb 5.71698 -23.8686
lclavicle -2.00773e-014 -2.94201e-014
lhumerus -23.2444 -13.5996 83.8935
lradius 47.0413
lwrist 3.56233
lhand -17.9471 -7.58138
lfingers 7.12502
lthumb 8.32139 22.2347
rfemur -28.3078 -19.2766 15.0608
rtibia 84.5075
rfoot -18.2257 -18.4267
rtoes -8.8905
lfemur -20.9717 1.53879 -19.5209
ltibia 56.944
lfoot -23.5236 2.79971
ltoes -24.8913
400
root 2.16532 16.8687 9.66293 7.05534 6.62835 -5.11264
lowerback 15.1807 0.667909 -4.94793
upperback -1.82955 0.20022 2.31323
thorax -10.6023 0.476569 5.3026
lowerneck -26.2216 -0.106723 5.04189
upperneck 22.9571 -1.89906 -0.989362
head 11.8145 -0.523737 -1.53213
rclavicle 8.64713e-015 7.55382e-015
rhumerus -43.1577 1.60607 -73.6665
rradius 56.8525
rwrist -13.2304
rhand -20.651 6.00561
rfingers 7.12502
rthumb 5.71132 -23.8974
lclavicle 8.64713e-015 7.55382e-015
lhumerus -23.1026 -14.1025 83.5694
lradius 48.0761
lwrist 3.56437
lhand -18.0241 -7.62924
lfingers 7.12502
lthumb 8.24706 22.1898
rfemur -30.2468 -19.1534 14.6426
rtibia 85.9613
rfoot -18.1671 -18.322
rtoes -8.86803
lfemur -19.8274 1.42306 -20.1964
ltibia 55.4046
lfoot -23.9315 4.70257
ltoes -24.6997
401
root 2.19264 16.8805 9.81236 7.43482 5.69163 -4.85342
lowerback 15.095 0.848059 -5.26645
upperback -1.93336 0.366974 2.15476
thorax -10.6937 0.57481 5.2705
lowerneck -26.3353 0.0135728 5.11451
upperneck 22.9504 -1.76529 -0.994958
head 11.8375 -0.458044 -1.52389
rclavicle 7.95139e-015 1.59028e-014
rhumerus -43.1653 2.75117 -73.6349
rradius 58.4931
rwrist -12.7048
rhand -20.4902 5.98512
rfingers 7.12502
rthumb 5.86654 -23.9137
lclavicle 7.95139e-015 1.59028e-014
lhumerus -23.1756 -14.5283 83.2264
lradius 49.1553
lwrist 3.63512
lhand -18.111 -7.66224
lfingers 7.12502
lthumb 8.16321 22.1601
rfemur -32.2102 -19.0543 14.234
rtibia 87.4139
rfoot -18.1146 -18.1682
rtoes -8.84659
lfemur -18.4927 1.35306 -20.8804
ltibia 53.6144
lfoot -24.2098 6.56522
ltoes -24.3937
402
root 2.22171 16.9006 9.97042 7.74989 4.72958 -4.63239
lowerback 15.0017 1.001 -5.56814
upperback -2.05595 0.503663 2.02204
thorax -10.799 0.659945 5.26439
lowerneck -26.4078 0.17586 5.24265
upperneck 23.0199 -1.5678 -1.09089
head 11.8832 -0.369898 -1.54835
rclavicle -2.49475e-014 -1.70955e-014
rhumerus -43.2367 4.02605 -73.6229
rradius 60.1935
rwrist -12.2429
rhand -20.2001 5.98007
rfingers 7.12502
rthumb 6.14661 -23.9108
lclavicle -2.49475e-014 -1.70955e-014
lhumerus -23.466 -14.8503 82.8812
lradius 50.2325
lwrist 3.79306
lhand -18.2293 -7.74928
lfingers 7.12502
lthumb 8.04905 22.0774
rfemur -34.1526 -19.0087 13.8615
rtibia 88.837
rfoot -18.0829 -17.9421
rtoes -8.86873
lfemur -16.9713 1.29364 -21.5396
ltibia 51.5869
lfoot -24.3255 8.32084
ltoes -24.0032
403
root 2.25176 16.9296 10.138 7.99076 3.79187 -4.47624
lowerback 14.912 1.11309 -5.82117
upperback -2.18842 0.598678 1.92623
thorax -10.9124 0.724577 5.28119
lowerneck -26.465 0.378963 5.43028
upperneck 23.1473 -1.31178 -1.27363
head 11.95 -0.261228 -1.60578
rclavicle -2.08724e-015 1.19271e-014
rhumerus -43.3481 5.41609 -73.6416
rradius 61.9245
rwrist -11.9289
rhand -19.8292 5.97674
rfingers 7.12502
rthumb 6.50466 -23.9034
lclavicle -2.08724e-015 1.19271e-014
lhumerus -23.9332 -15.0821 82.5415
lradius 51.2409
lwrist 4.04509
lhand -18.4269 -7.88398
lfingers 7.12502
lthumb 7.85832 21.95
rfemur -36.0309 -19.0377 13.563
rtibia 90.2072
rfoot -18.07 -17.6315
rtoes -8.99422
lfemur -15.2727 1.21423 -22.1278
ltibia 49.3405
lfoot -24.2484 9.92687
ltoes -23.6286
404
root 2.28286 16.9687 10.3156 8.16337 2.91421 -4.41127
lowerback 14.8293 1.18195 -5.9803
upperback -2.33234 0.658327 1.87944
thorax -11.0374 0.76949 5.30704
lowerneck -26.5139 0.604816 5.63888
upperneck 23.3525 -1.01634 -1.51101
head 12.0479 -0.139258 -1.6815
rclavicle -1.68967e-014 -1.19271e-014
rhumerus -43.5207 6.90277 -73.6759
rradius 63.6726
rwrist -11.7475
rhand -19.4598 5.97403
rfingers 7.12502
rthumb 6.86128 -23.8948
lclavicle -1.68967e-014 -1.19271e-014
lhumerus -24.5626 -15.2081 82.2399
lradius 52.1415
lwrist 4.31987
lhand -18.701 -8.0588
lfingers 7.12502
lthumb 7.59379 21.7849
rfemur -37.8256 -19.1559 13.3752
rtibia 91.5058
rfoot -18.0593 -17.2321
rtoes -9.20549
lfemur -13.4204 1.08796 -22.6038
ltibia 46.8992
lfoot -23.9523 11.3247
ltoes -23.3194
405
root 2.31575 17.0178 10.5033 8.27687 2.10258 -4.40607
lowerback 14.7368 1.21223 -6.06256
upperback -2.47938 0.685629 1.8714
thorax -11.155 0.795755 5.33953
lowerneck -26.58 0.839588 5.84364
upperneck 23.6461 -0.702632 -1.76593
head 12.1865 -0.0104604 -1.76152
rclavicle 8.24956e-015 -1.39149e-014
rhumerus -43.7525 8.45911 -73.7213
rradius 65.4189
rwrist -11.6999
rhand -19.1355 5.92505
rfingers 7.12502
rthumb 7.17437 -23.9333
lclavicle 8.24956e-015 -1.39149e-014
lhumerus -25.3122 -15.262 81.9911
lradius 52.8797
lwrist 4.64663
lhand -19.0535 -8.25298
lfingers 7.12502
lthumb 7.25352 21.6027
rfemur -39.5284 -19.3692 13.2562
rtibia 92.7306
rfoot -18.0147 -16.7321
rtoes -9.45565
lfemur -11.4337 0.898221 -23.0035
ltibia 44.2872
lfoot -23.4037 12.4887
ltoes -23.1142
406
root 2.35071 17.077 10.7005 8.34561 1.35566 -4.44177
lowerback 14.6455 1.22098 -6.07268
upperback -2.63399 0.700891 1.89406
thorax -11.2793 0.813466 5.36778
lowerneck -26.6601 1.07721 6.04104
upperneck 23.9987 -0.37895 -2.0298
head 12.3541 0.121472 -1.84308
rclavicle 9.24349e-015 1.27222e-014
rhumerus -44.07 10.0245 -73.7562
rradius 67.1518
rwrist -11.7352
rhand -18.8755 5.82794
rfingers 7.12502
rthumb 7.42536 -24.0217
lclavicle 9.24349e-015 1.27222e-014
lhumerus -26.1516 -15.2747 81.8215
lradius 53.4132
lwrist 4.95509
lhand -19.505 -8.51076
lfingers 7.12502
lthumb 6.81763 21.3595
rfemur -41.1456 -19.67 13.1832
rtibia 93.881
rfoot -17.9138 -16.1337
rtoes -9.71902
lfemur -9.34317 0.62359 -23.3525
ltibia 41.5368
lfoot -22.5569 13.3976
ltoes -23.0399
407
root 2.38849 17.1464 10.9076 8.37681 0.635093 -4.47819
lowerback 14.5187 1.2364 -6.03625
upperback -2.81881 0.737194 1.9312
thorax -11.4193 0.840116 5.38039
lowerneck -26.6278 1.26143 6.15207
upperneck 24.3827 -0.100539 -2.24057
head 12.5134 0.232809 -1.89822
rclavicle -1.64494e-014 7.95139e-015
rhumerus -44.5646 11.5522 -73.7593
rradius 68.8473
rwrist -11.7586
rhand -18.6571 5.69885
rfingers 7.12502
rthumb 7.63617 -24.1433
lclavicle -1.64494e-014 7.95139e-015
lhumerus -27.1263 -15.3261 81.7842
lradius 53.7379
lwrist 5.29427
lhand -20.0243 -8.76361
lfingers 7.12502
lthumb 6.31637 21.1222
rfemur -42.6771 -20.0156 13.1003
rtibia 94.9569
rfoot -17.7433 -15.4411
rtoes -9.94263
lfemur -7.16515 0.295681 -23.7064
ltibia 38.6775
lfoot -21.3813 14.034
ltoes -23.1235
408
root 2.42822 17.2259 11.1241 8.37642 -0.0849825 -4.50787
lowerback 14.3493 1.28577 -5.95977
upperback -3.0667 0.829052 1.97539
thorax -11.6132 0.894264 5.36475
lowerneck -26.31 1.37893 6.19619
upperneck 24.7242 0.128747 -2.43132
head 12.5999 0.318147 -1.94183
rclavicle -1.08835e-014 -1.27222e-014
rhumerus -45.3411 12.9858 -73.7314
rradius 70.5005
rwrist -11.7493
rhand -18.4483 5.56785
rfingers 7.12502
rthumb 7.8377 -24.2669
lclavicle -1.08835e-014 -1.27222e-014
lhumerus -28.3016 -15.4884 81.9289
lradius 53.8705
lwrist 5.63675
lhand -20.5541 -8.99151
lfingers 7.12502
lthumb 5.8049 20.909
rfemur -44.1274 -20.3605 13.0047
rtibia 95.9526
rfoot -17.4953 -14.6853
rtoes -10.1144
lfemur -4.92848 -0.0469726 -24.0753
ltibia 35.751
lfoot -19.8516 14.379
ltoes -23.3876
409
root 2.46979 17.316 11.3502 8.3203 -0.824426 -4.53005
lowerback 14.1442 1.37705 -5.85109
upperback -3.34318 0.986031 2.02733
thorax -11.8274 0.978548 5.32357
lowerneck -25.7674 1.41945 6.13816
upperneck 24.9956 0.298384 -2.58777
head 12.6116 0.371272 -1.96435
rclavicle -1.16289e-014 2.78299e-015
rhumerus -46.3416 14.2973 -73.6755
rradius 72.0724
rwrist -11.6628
rhand -18.2034 5.47725
rfingers 7.12502
rthumb 8.07402 -24.3485
lclavicle -1.16289e-014 2.78299e-015
lhumerus -29.6236 -15.7407 82.246
lradius 53.8398
lwrist 5.95532
lhand -21.03 -9.12836
lfingers 7.12502
lthumb 5.34538 20.7842
rfemur -45.4378 -20.6604 12.8811
rtibia 96.8485
rfoot -17.172 -13.9001
rtoes -10.2491
lfemur -2.62551 -0.367254 -24.4626
ltibia 32.7942
lfoot -17.9472 14.4417
ltoes -23.8771
